<?xml version="1.0" standalone="no"?>
<!DOCTYPE svg PUBLIC "-//W3C//DTD SVG 20010904//EN"
 "http://www.w3.org/TR/2001/REC-SVG-20010904/DTD/svg10.dtd">
<svg version="1.0" xmlns="http://www.w3.org/2000/svg"
 width="2028.000000pt" height="2028.000000pt" viewBox="0 0 2028.000000 2028.000000"
 preserveAspectRatio="xMidYMid meet">
<metadata>
Created by potrace 1.11, written by Peter Selinger 2001-2013
</metadata>
<g transform="translate(0.000000,2028.000000) scale(0.100000,-0.100000)"
fill="#000000" stroke="none">
<path d="M0 10186 l0 -10094 59 24 c33 14 156 49 273 78 454 116 1215 352
2693 837 352 116 786 260 965 320 925 313 1145 387 1389 464 145 47 272 85
280 85 19 0 60 59 129 185 27 50 69 124 93 165 74 126 93 174 144 354 95 340
179 829 219 1271 36 393 43 1036 21 1810 -5 165 -4 177 10 145 14 -35 14 -34
9 35 -2 39 -27 419 -54 845 -28 426 -54 831 -59 900 -5 69 -37 281 -72 476
l-62 351 -105 17 c-249 41 -500 144 -657 270 -22 17 -52 39 -67 49 -164 103
-605 671 -738 948 -51 108 -84 269 -102 494 -15 203 -15 749 1 920 24 263 139
563 292 761 54 70 207 216 219 209 5 -3 52 24 105 60 168 114 248 145 381 145
94 0 193 -18 285 -53 134 -51 373 -182 472 -259 35 -28 37 -28 37 -9 0 12 4
21 9 21 13 0 79 -76 161 -185 38 -49 89 -107 114 -128 34 -28 46 -45 46 -66 0
-18 23 -60 67 -122 91 -128 408 -610 523 -794 212 -338 411 -704 426 -779 7
-39 18 -47 27 -18 3 9 37 109 76 221 106 302 138 425 151 571 6 69 15 366 20
660 6 308 17 618 26 730 9 107 16 195 17 196 1 1 144 -37 317 -83 866 -230
891 -235 1775 -388 598 -103 907 -159 1076 -195 79 -16 144 -28 144 -27 1 1
50 106 110 232 59 127 109 231 110 233 5 6 95 -21 95 -28 0 -5 -49 -111 -108
-237 l-109 -229 61 -22 c85 -31 165 -79 177 -106 8 -17 3 -71 -20 -222 -44
-286 -78 -574 -93 -777 -19 -281 11 -533 79 -660 39 -72 169 -205 260 -267 43
-29 94 -67 113 -85 122 -112 515 -271 1060 -430 281 -82 421 -114 579 -130
204 -22 297 -8 437 63 137 70 237 163 398 372 234 303 507 671 551 743 73 121
170 196 276 216 88 16 155 -6 189 -62 25 -40 25 -69 0 -159 -21 -77 -54 -405
-65 -648 -12 -258 22 -637 71 -806 61 -212 196 -388 355 -466 181 -89 634
-262 799 -305 l35 -9 3 -184 c11 -645 -130 -1143 -492 -1730 -39 -63 -73 -117
-77 -120 -9 -7 -68 -126 -122 -246 -25 -54 -64 -139 -87 -188 -175 -373 -316
-729 -434 -1094 -59 -183 -66 -215 -100 -452 -20 -140 -52 -390 -71 -555 -52
-439 -50 -431 -156 -651 -50 -104 -107 -213 -126 -244 -146 -229 -355 -339
-739 -387 -115 -15 -147 -16 -250 -4 -114 12 -390 58 -484 80 -25 6 -51 11
-57 11 -15 0 -18 -36 -4 -44 5 -3 78 -15 162 -26 85 -11 186 -28 225 -38 62
-17 356 -160 684 -335 342 -182 1016 -506 1250 -602 58 -23 184 -77 280 -120
407 -179 817 -356 1726 -744 l331 -141 1161 0 1162 0 0 10140 0 10140 -10140
0 -10140 0 0 -10094z m12525 6020 c743 -71 1553 -230 1840 -361 277 -126 718
-430 1298 -893 159 -127 174 -143 273 -275 300 -398 488 -758 604 -1153 44
-150 141 -576 190 -831 56 -295 80 -505 100 -883 6 -102 17 -264 25 -360 27
-324 38 -680 27 -883 -6 -104 -12 -190 -14 -192 -2 -2 -81 18 -176 45 -291 84
-511 120 -722 120 -150 0 -237 -14 -291 -44 -61 -35 -119 -42 -170 -22 -137
55 -312 168 -539 346 -136 108 -587 411 -836 564 -124 76 -647 289 -991 405
-389 131 -506 150 -1041 171 -274 11 -386 25 -487 60 -193 68 -1247 293 -2055
439 -501 90 -605 104 -1403 177 l-299 28 7 46 c36 247 162 515 453 960 396
606 1070 1442 1286 1595 262 185 845 493 1271 670 338 141 693 249 900 274 50
6 101 13 115 15 50 9 479 -4 635 -18z m20 -4497 c484 -41 1114 -251 1630 -544
340 -192 525 -381 580 -592 19 -71 19 -217 1 -303 -35 -164 -121 -350 -253
-550 -178 -268 -319 -441 -448 -547 -176 -145 -280 -176 -590 -177 -308 0
-500 48 -1051 263 -398 156 -660 335 -750 514 -80 158 -101 438 -55 737 76
499 137 731 242 916 61 108 166 214 252 255 106 49 154 52 442 28z m3692
-1380 c148 -20 426 -96 713 -194 513 -175 731 -286 932 -474 64 -60 81 -83
106 -144 43 -104 56 -180 49 -300 -10 -179 -54 -295 -254 -667 -223 -416 -302
-522 -448 -608 -190 -111 -410 -127 -745 -57 -456 97 -985 362 -1095 550 -68
116 -90 386 -60 730 37 418 96 666 217 913 49 100 67 129 101 154 122 90 291
124 484 97z"/>
</g>
</svg>
